<svg xmlns="http://www.w3.org/2000/svg" width="288.245" height="40" viewBox="0 0 288.245 40">
    <g transform="translate(-7 -5.7)">
        <path d="M319.214,33.8,317,35.072v2.12l9.941,7.585v-6.5Z" transform="translate(-163.946 -14.861)" fill="#1ab362"/>
        <path d="M305.3,56.5a6.764,6.764,0,0,0,3.345,5.8l4.429,2.544,2.261-1.319V61.585L305.3,54Z" transform="translate(-157.758 -25.544)" fill="#ee2c44"/>
        <path d="M309.063,38.6,305.2,40.814V41h0v2.78l11.213,8.857.471,1.79.471-.283a6.7,6.7,0,0,0,3.251-4.759l-6.832-5.512Z" transform="translate(-157.705 -17.399)" fill="#fecf08"/>
        <path d="M304.3,53.6" transform="translate(-157.229 -25.332)" fill="none" stroke="#35404d" stroke-miterlimit="10" stroke-width="1"/>
        <path d="M304.3,49.7" transform="translate(-157.229 -23.27)" fill="none" stroke="#0d1f32" stroke-miterlimit="10" stroke-width="4.2"/>
        <path d="M21.511,34.485c-2.827-.754-5.041-1.319-5.041-3.157,0-1.178.9-2.45,3.345-2.45a5.073,5.073,0,0,1,4.476,2.544l6.784-3.675A13.02,13.02,0,0,0,19.815,22c-5.8,0-11.637,2.968-11.637,9.611,0,6.408,5.748,8.009,10.365,9.282,2.827.8,5.088,1.413,5.088,3.2,0,.989-.518,2.638-4.1,2.638a5.852,5.852,0,0,1-5.7-3.392L7,47.253c2.356,4.287,6.549,6.5,12.58,6.5,5.984,0,12.344-2.544,12.344-9.611C31.923,37.218,26.128,35.71,21.511,34.485Z" transform="translate(0 -8.62)" fill="#19234f"/>
        <path d="M88.492,44.521a9.07,9.07,0,0,1-6.172,2.214c-4.287,0-7.02-1.649-8.2-4.853l-.33-.942H96.5a16.456,16.456,0,0,0,.236-3.062C96.784,28.832,90.235,22,81.519,22,72.237,22,65.5,28.69,65.5,37.877c0,9.329,6.879,15.877,16.678,15.877,5.465,0,9.706-1.885,12.627-5.559ZM73.933,34.438c.989-3.534,3.628-5.465,7.538-5.465a7.144,7.144,0,0,1,7.35,5.465l.236.9H73.7Z" transform="translate(-30.938 -8.62)" fill="#19234f"/>
        <path d="M157.458,29.256c3.769,0,6.172,2.544,6.172,6.408v17.2h8.009V34.3c0-6.125-3.392-12.3-11.025-12.3-3.722,0-6.784,1.272-8.433,3.534l-1.272,1.743V22.848H142.9V52.86h8.009V36.417C150.909,31.847,153.312,29.256,157.458,29.256Z" transform="translate(-71.872 -8.62)" fill="#19234f"/>
        <path d="M231.858,29.256c3.769,0,6.172,2.544,6.172,6.408v17.2h8.009V34.3c0-6.125-3.392-12.3-11.025-12.3-3.722,0-6.784,1.272-8.433,3.534l-1.272,1.743V22.848H217.3V52.86h8.009V36.417C225.309,31.847,227.712,29.256,231.858,29.256Z" transform="translate(-111.219 -8.62)" fill="#19234f"/>
        <path d="M380.692,23.9l-7.067,21.437L366.6,23.9h-8.9l11.119,29.965h9.658L389.6,23.9Z" transform="translate(-185.47 -9.625)" fill="#19234f"/>
        <path d="M441.323,53.808c3.769,0,6.737-1.225,8.81-3.581l1.225-1.413V52.96h8.009V22.948h-8.009v4.146l-1.225-1.413c-2.073-2.4-5.041-3.581-8.81-3.581C433.313,22.1,427,29.073,427,37.978,427.047,46.835,433.313,53.808,441.323,53.808Zm1.885-24.264c4.9,0,8.2,3.345,8.2,8.386,0,4.994-3.3,8.386-8.2,8.386s-8.2-3.345-8.2-8.386C435.057,32.936,438.307,29.544,443.207,29.544Z" transform="translate(-222.12 -8.673)" fill="#19234f"/>
        <path d="M512.479,42.214c2.167,1.979,5.936,2.638,11.826,2.12V37.172c-2.686.141-4.523-.047-5.56-1.037a3.094,3.094,0,0,1-.9-2.4V21.907h6.455V14.275h-6.455V5.7l-8.009,2.4v6.172H504.8v7.633h5.041V33.733C509.841,37.879,510.689,40.565,512.479,42.214Z" transform="translate(-263.265 0)" fill="#19234f"/>
        <path d="M575.439,44.521a9.07,9.07,0,0,1-6.172,2.214c-4.287,0-7.02-1.649-8.2-4.853l-.33-.942h22.709a16.453,16.453,0,0,0,.236-3.062c0-9.046-6.549-15.878-15.265-15.878-9.282,0-16.019,6.69-16.019,15.878,0,9.329,6.879,15.877,16.679,15.877,5.465,0,9.705-1.885,12.627-5.559ZM560.88,34.438c.989-3.534,3.628-5.465,7.538-5.465a7.145,7.145,0,0,1,7.35,5.465l.236.9H560.645Z" transform="translate(-288.439 -8.62)" fill="#19234f"/>
        <g transform="translate(138.637 12.532)">
            <path d="M309.634,41.273a1.326,1.326,0,0,1-.471-.989v-.66a.453.453,0,0,0-.66-.377l-3.2,1.837v.188h0v2.214a1.16,1.16,0,0,0,.424.9l10.883,8.245a.983.983,0,0,1,.377.754V54.7l.471-.283a6.624,6.624,0,0,0,3.157-4.287.781.781,0,0,0-.283-.754Z" transform="translate(-296.395 -30.248)" fill="none"/>
            <path d="M326.476,38.091l-6.784-3.91a.9.9,0,0,0-.848,0l-1.319.754a.849.849,0,0,0-.424.754v1.084a1.007,1.007,0,0,0,.424.848L326.57,44.5a.3.3,0,0,0,.471-.236v-5.23A1.25,1.25,0,0,0,326.476,38.091Z" transform="translate(-302.636 -27.538)" fill="none"/>
            <path d="M314.811,61.525l-9.282-7.067a.208.208,0,0,0-.33.141v2.073a6.764,6.764,0,0,0,3.345,5.8l4.146,2.4a.428.428,0,0,0,.471,0l1.6-.9a.8.8,0,0,0,.424-.754v-.942A.8.8,0,0,0,314.811,61.525Z" transform="translate(-296.342 -38.297)" fill="none"/>
            <path d="M305.253,24.4a14.605,14.605,0,1,0,14.653,14.605A14.451,14.451,0,0,0,305.253,24.4Zm9.423,16.443a8.428,8.428,0,0,1-4.193,7.256l-4.853,2.827a.809.809,0,0,1-.8,0L299.976,48.1a8.428,8.428,0,0,1-4.193-7.256v-8.1a.805.805,0,0,1,.33-.612l8.81-5.088a.8.8,0,0,1,.66,0l8.763,5.088a.718.718,0,0,1,.33.565Z" transform="translate(-288.621 -22.421)" fill="none"/>
            <path d="M320.216,35.009l-8.763-5.088a.8.8,0,0,0-.66,0l-8.763,5.041a.687.687,0,0,0-.33.612v8.151a8.428,8.428,0,0,0,4.193,7.256l4.853,2.827a.809.809,0,0,0,.8,0l4.853-2.827a8.37,8.37,0,0,0,4.193-7.256V35.574A.775.775,0,0,0,320.216,35.009Zm-6.832,15.265a.905.905,0,0,1-.424.754l-1.6.9a.428.428,0,0,1-.471,0l-4.146-2.4a6.65,6.65,0,0,1-3.345-5.8V41.652a.187.187,0,0,1,.33-.141l9.281,7.067a1.006,1.006,0,0,1,.377.8Zm5.324-5.041a6.783,6.783,0,0,1-3.157,4.287l-.471.283V48.484a.984.984,0,0,0-.377-.754L303.82,39.485a1.035,1.035,0,0,1-.424-.9V36.375h0v-.188l3.2-1.837a.437.437,0,0,1,.66.377v.66a1.326,1.326,0,0,0,.471.989l10.742,8.151A.738.738,0,0,1,318.708,45.233Zm.141-3.11a.3.3,0,0,1-.471.236l-9.046-6.879a1.007,1.007,0,0,1-.424-.848V33.548a.892.892,0,0,1,.424-.754l1.319-.754a.9.9,0,0,1,.848,0l6.784,3.91a1.01,1.01,0,0,1,.518.9v5.277Z" transform="translate(-294.491 -25.303)" fill="#19234f"/>
            <path d="M303.031,20.2a16.584,16.584,0,1,0,16.631,16.584A16.44,16.44,0,0,0,303.031,20.2Zm0,31.19a14.605,14.605,0,1,1,14.653-14.605A14.451,14.451,0,0,1,303.031,51.39Z" transform="translate(-286.4 -20.2)" fill="#19234f"/>
        </g>
    </g>
</svg>